<?xml version="1.0" encoding="UTF-8" standalone="no"?>
<!DOCTYPE svg PUBLIC "-//W3C//DTD SVG 1.1//EN" "http://www.w3.org/Graphics/SVG/1.1/DTD/svg11.dtd">
<svg width="100%" height="100%" viewBox="0 0 4873 4426" version="1.1" xmlns="http://www.w3.org/2000/svg" xmlns:xlink="http://www.w3.org/1999/xlink" xml:space="preserve" xmlns:serif="http://www.serif.com/" style="fill-rule:evenodd;clip-rule:evenodd;stroke-linejoin:round;stroke-miterlimit:2;">
    <g transform="matrix(5.55556,0,0,5.55556,0,0)">
        <path d="M468.028,322.625C468.215,323.318 467.718,323.798 466.991,323.663C452.894,317.852 403.795,294.401 402.932,280.378C455.033,302.074 492.25,218.849 486.185,189.82C482.932,205.987 451.551,226.182 437.421,223.021C435.835,222.667 418.011,243.594 423.414,247.403C416.432,258.174 409.454,311.009 400.588,314.325C400.294,314.435 399.877,314.231 399.55,314.325C363.968,303.018 334.216,307.266 312.397,270.229C297.92,245.657 309.464,252.204 325.366,241.697C356.894,220.864 345.953,207.542 362.199,178.926C398.452,115.067 473.307,140.849 491.892,174.775C513.944,215.033 482.808,270.26 517.83,313.806C502.01,320.537 471.444,319.39 467.509,320.55C465.468,321.152 468,322.522 468.028,322.625L468.028,322.625Z" style="fill:rgb(9,8,20);fill-rule:nonzero;"/>
        <path d="M352.027,220.97C352.027,181.522 384.006,149.544 423.454,149.544C462.901,149.544 494.88,181.522 494.88,220.97C494.88,252.962 473.845,280.038 444.853,289.131L434.204,297.711L453.322,364.625L431.045,380.385L360.654,321.726C360.654,321.726 375.86,302.356 384.015,280.516C364.741,267.724 352.027,245.836 352.027,220.97L352.027,220.97Z" style="fill:rgb(255,182,182);fill-rule:nonzero;"/>
        <path d="M671.12,403.975L619.945,581.808L568.193,545.891L629.179,390.735C623.86,380.885 622.539,367.938 626.578,355.141C633.647,332.75 654.399,319.34 672.93,325.19C691.461,331.04 700.753,353.933 693.685,376.325C689.645,389.122 681.129,398.963 671.12,403.975L671.12,403.975Z" style="fill:rgb(255,182,182);fill-rule:nonzero;"/>
        <rect x="315.734" y="474.192" width="184.597" height="215.002" style="fill:rgb(255,182,182);"/>
        <path d="M377.698,302.749L333.816,402.962L338.158,575.192L486.471,575.192L491.126,392.443L436.063,307.572L377.698,302.749Z" style="fill:rgb(214,214,227);fill-rule:nonzero;"/>
        <path d="M289.535,342.626C289.535,342.626 276.688,711.14 242.193,771.953C242.193,771.953 289.865,780.261 301.989,763.079C314.114,745.898 360.878,631.51 361.385,606.178C361.892,580.846 376.542,302.625 376.542,302.625L289.535,342.626Z" style="fill:rgb(9,8,20);fill-rule:nonzero;"/>
        <path d="M432.19,317.698L436.063,307.572L534.421,346.632C534.421,346.632 529.832,714.906 569.651,752.119C569.651,752.119 503.129,748.946 500.92,747.422C498.711,745.898 450.418,555.464 450.418,555.464C450.418,555.464 473.439,467.243 475.216,429.574C476.994,391.905 432.19,317.698 432.19,317.698Z" style="fill:rgb(9,8,20);fill-rule:nonzero;"/>
        <path d="M304.4,608.479L262.53,735.711L260.036,796.547L569.624,796.547L509.915,608.479L304.4,608.479Z" style="fill:rgb(9,8,20);fill-rule:nonzero;"/>
        <path d="M509.465,353.831L534.421,346.632L591.806,462.848L616.399,399.194L677.16,416.554C677.16,416.554 649.542,595.783 607.788,586.143C566.035,576.502 509.465,478.077 509.465,478.077L509.465,353.831Z" style="fill:rgb(9,8,20);fill-rule:nonzero;"/>
        <path d="M263.45,708.731L179.698,586.979L218.2,553.105L296.901,685.616C307.108,687.318 317.31,693.695 324.363,703.901C336.704,721.76 334.726,744.516 319.947,754.728C305.168,764.941 283.183,758.743 270.843,740.885C263.79,730.679 261.433,718.881 263.45,708.731Z" style="fill:rgb(255,182,182);fill-rule:nonzero;"/>
        <path d="M304.4,352.901L289.535,342.626L167.931,572.313C167.931,572.313 158.06,586.163 170.935,608.479C183.81,630.796 249.909,699.138 249.909,699.138L301.989,669.722L248.945,570.866L298.944,484.38L304.4,352.901L304.4,352.901Z" style="fill:rgb(9,8,20);fill-rule:nonzero;"/>
        <path d="M486.185,189.82C482.932,205.987 418.011,243.594 423.414,247.403C416.432,258.174 409.454,311.009 400.588,314.325C400.294,314.435 399.877,314.231 399.55,314.325C363.968,303.018 334.216,307.266 312.397,270.229C297.92,245.657 309.464,252.204 325.366,241.697C356.894,220.864 345.953,207.542 362.199,178.926C398.452,115.067 473.307,140.849 491.892,174.775C513.944,215.033 492.25,218.849 486.185,189.82Z" style="fill:rgb(9,8,20);fill-rule:nonzero;"/>
        <path d="M764.826,163.635C764.826,171.388 764.131,179.119 762.763,186.655C760.418,195.928 756.726,205.245 751.579,214.388C742.11,231.197 731.968,237.473 723.629,253.935C722.195,255.043 720.718,256.042 719.22,257.019C716.223,258.952 715.897,268.421 712.705,270.049C712.683,270.071 712.661,270.071 712.64,270.093C712.053,270.505 711.51,272.525 710.989,275.566L710.989,275.609C709.382,285.013 707.992,304.146 706.385,315.46C706.168,316.829 705.973,318.088 705.755,319.196C705.212,322.193 704.648,324.104 704.018,324.343C696.265,327.34 692.964,323.235 684.472,324.343C679.912,324.951 656.631,328.686 651.896,328.686C638.453,328.686 631.178,324.104 620.297,319.196C619.537,318.87 618.777,318.523 617.974,318.175C617.691,318.066 617.431,317.936 617.149,317.828C614.021,316.503 611.068,283.102 608.136,270.462C608.114,270.44 608.114,270.419 608.114,270.397C607.506,267.769 606.898,266.053 606.29,265.706C606.138,265.619 605.986,265.532 605.834,265.445C603.901,264.338 602.012,263.122 600.165,261.862C588.981,243.228 567.373,225.507 556.709,196.515C553.647,185.634 551.997,174.471 551.997,163.635C551.997,104.867 599.644,57.22 658.411,57.22C717.179,57.22 764.826,104.867 764.826,163.635L764.826,163.635Z" style="fill:rgb(119,215,195);fill-rule:nonzero;"/>
        <path d="M762.763,186.655C760.418,195.928 756.726,205.245 751.579,214.388C742.11,231.197 731.968,237.473 723.629,253.935C718.091,264.902 713.335,280.387 710.121,306.491C709.925,308.033 710.337,309.792 710.121,311.312C709.621,314.679 710.229,314.07 708.187,317.111C707.254,317.632 706.689,316.894 706.385,315.46C705.821,313.05 705.973,308.598 706.255,304.558C706.993,293.526 708.665,283.97 710.989,275.609L710.989,275.566C711.51,273.676 712.075,271.852 712.64,270.093C722.695,239.471 741.241,225.594 749.646,209.567C793.798,125.564 712.205,31.789 622.339,64.408C617.518,66.167 617.778,67.188 617.518,67.318C610.764,70.25 605.269,71.531 598.711,75.983C558.881,103.087 544.591,156.707 562.551,200.88C572.281,224.79 592.651,238.277 605.834,265.445C606.616,267.031 607.376,268.681 608.114,270.397C608.114,270.419 608.114,270.44 608.136,270.462C613.435,282.906 617.192,298.173 617.974,318.175C617.996,318.457 618.017,318.74 618.017,319.022C618.799,319.087 619.559,319.131 620.297,319.196C631.829,320.195 639.3,322.041 643.166,320.043L647.422,320.477C648.834,322.453 672.55,320.043 676.35,319.999L677.327,319.999C686.774,319.869 696.308,320.347 705.755,319.196C706.233,319.152 706.733,319.087 707.21,319.022C709.664,319.717 709.013,321.802 709.143,321.932C709.447,324.669 704.908,332.595 703.366,333.486C698.914,336.092 626.378,337.417 619.451,332.53C612.132,327.362 615.737,320.216 615.607,319.522C615.476,318.913 612.805,317.176 612.696,316.611C611.393,309.228 612.936,290.485 604.031,269.355C602.967,266.814 601.664,264.338 600.165,261.862C588.981,243.228 567.373,225.507 556.709,196.515C551.758,183.093 549.151,167.283 550.976,147.846C554.82,107.017 590.045,66.84 629.571,56.698C712.292,35.459 782.135,110.47 762.763,186.655L762.763,186.655Z" style="fill:rgb(1,0,1);fill-rule:nonzero;"/>
        <path d="M704.405,335.739C711.288,342.288 707.61,344.501 704.405,352.135C700.359,351.225 631.11,355.651 621.463,352.135C614.993,349.777 613.155,341.276 618.569,335.739C646.151,338.866 676.946,338.984 704.405,335.739L704.405,335.739Z" style="fill:rgb(1,0,1);fill-rule:nonzero;"/>
        <path d="M708.263,355.028C710.972,361.053 705.788,364.75 703.441,369.495L698.618,370.46L622.427,369.495C617.83,368.611 614.933,362.188 613.747,357.922C613.89,357.847 613.203,356.37 615.194,355.028L621.463,353.099C641.246,355.02 677.422,355.902 697.172,355.028C697.758,355.002 700.994,351.832 708.263,355.028Z" style="fill:rgb(1,0,1);fill-rule:nonzero;"/>
        <path d="M657.855,0.169C661.932,-2.614 662.007,29.971 660.748,31.031C655.99,35.039 656.488,1.101 657.855,0.169Z" style="fill:rgb(1,0,1);fill-rule:nonzero;"/>
        <path d="M625.064,3.062C628.27,1.001 635.67,31.843 635.19,33.442C632.466,42.524 623.555,4.032 625.064,3.062Z" style="fill:rgb(1,0,1);fill-rule:nonzero;"/>
        <path d="M690.646,3.062C694.47,2.057 688.036,32.05 687.271,33.442C680.04,46.599 688.571,3.607 690.646,3.062Z" style="fill:rgb(1,0,1);fill-rule:nonzero;"/>
        <path d="M645.751,276.564L643.751,276.564L643.751,243.895L606.928,165.915L608.736,165.061L645.751,243.446L645.751,276.564Z" style="fill:rgb(15,15,16);fill-rule:nonzero;"/>
        <path d="M676.873,276.609L675.235,240.315L675.27,240.176L694.816,159.822L696.759,160.295L677.247,240.51L678.871,276.52L676.873,276.609Z" style="fill:rgb(15,15,16);fill-rule:nonzero;"/>
    </g>
</svg>
